<svg xmlns="http://www.w3.org/2000/svg" xmlns:xlink="http://www.w3.org/1999/xlink" width="500" zoomAndPan="magnify" viewBox="0 0 375 374.999991" height="500" preserveAspectRatio="xMidYMid meet" version="1.0"><defs><filter x="0%" y="0%" width="100%" height="100%" id="2eddef0683"><feColorMatrix values="0 0 0 0 1 0 0 0 0 1 0 0 0 0 1 0 0 0 1 0" color-interpolation-filters="sRGB"/></filter><mask id="63dd3960b0"><g filter="url(#2eddef0683)"><rect x="-37.5" width="450" fill="#000000" y="-37.499999" height="449.999989" fill-opacity="0.6"/></g></mask><clipPath id="7810f16138"><path d="M 0.238281 0.0390625 L 118.558594 0.0390625 L 118.558594 118.359375 L 0.238281 118.359375 Z M 0.238281 0.0390625 " clip-rule="nonzero"/></clipPath><clipPath id="b4dd55c47b"><rect x="0" width="119" y="0" height="119"/></clipPath><mask id="9a1bd92a09"><g filter="url(#2eddef0683)"><rect x="-37.5" width="450" fill="#000000" y="-37.499999" height="449.999989" fill-opacity="0.6"/></g></mask><clipPath id="98cbad0428"><path d="M 1 0.28125 L 161.601562 0.28125 L 161.601562 139 L 1 139 Z M 1 0.28125 " clip-rule="nonzero"/></clipPath><clipPath id="bdc0b582fc"><rect x="0" width="162" y="0" height="162"/></clipPath><mask id="dd1506b890"><g filter="url(#2eddef0683)"><rect x="-37.5" width="450" fill="#000000" y="-37.499999" height="449.999989" fill-opacity="0.6"/></g></mask><clipPath id="8e7d00d774"><path d="M 0.761719 5 L 93 5 L 93 102 L 0.761719 102 Z M 0.761719 5 " clip-rule="nonzero"/></clipPath><clipPath id="90185959fd"><path d="M 0.761719 0.398438 L 120 0.398438 L 120 63 L 0.761719 63 Z M 0.761719 0.398438 " clip-rule="nonzero"/></clipPath><clipPath id="aa4c4b5cf1"><path d="M 0.761719 0.398438 L 117 0.398438 L 117 74 L 0.761719 74 Z M 0.761719 0.398438 " clip-rule="nonzero"/></clipPath><clipPath id="4d756f658b"><path d="M 0.761719 0.398438 L 115 0.398438 L 115 83 L 0.761719 83 Z M 0.761719 0.398438 " clip-rule="nonzero"/></clipPath><clipPath id="b4ae04d376"><path d="M 0.761719 8 L 112 8 L 112 93 L 0.761719 93 Z M 0.761719 8 " clip-rule="nonzero"/></clipPath><clipPath id="5a1fde5b5b"><path d="M 0.761719 20 L 109 20 L 109 105 L 0.761719 105 Z M 0.761719 20 " clip-rule="nonzero"/></clipPath><clipPath id="74233d1b68"><path d="M 0.761719 33 L 106 33 L 106 119 L 0.761719 119 Z M 0.761719 33 " clip-rule="nonzero"/></clipPath><clipPath id="f3fdb5e9a7"><path d="M 62 0.398438 L 163.71875 0.398438 L 163.71875 82 L 62 82 Z M 62 0.398438 " clip-rule="nonzero"/></clipPath><clipPath id="2030865552"><path d="M 59 5 L 163.71875 5 L 163.71875 92 L 59 92 Z M 59 5 " clip-rule="nonzero"/></clipPath><clipPath id="3f844ad822"><path d="M 56 14 L 163.71875 14 L 163.71875 102 L 56 102 Z M 56 14 " clip-rule="nonzero"/></clipPath><clipPath id="a8d9531f55"><path d="M 53 24 L 163.71875 24 L 163.71875 111 L 53 111 Z M 53 24 " clip-rule="nonzero"/></clipPath><clipPath id="129a79a5a2"><path d="M 49 36 L 163.71875 36 L 163.71875 122.078125 L 49 122.078125 Z M 49 36 " clip-rule="nonzero"/></clipPath><clipPath id="af3b7411c3"><path d="M 45 49 L 163.71875 49 L 163.71875 122.078125 L 45 122.078125 Z M 45 49 " clip-rule="nonzero"/></clipPath><clipPath id="2d048cad30"><rect x="0" width="164" y="0" height="123"/></clipPath><mask id="d7671297f5"><g filter="url(#2eddef0683)"><rect x="-37.5" width="450" fill="#000000" y="-37.499999" height="449.999989" fill-opacity="0.6"/></g></mask><clipPath id="f8adad3fe1"><path d="M 61 7 L 132.238281 7 L 132.238281 84 L 61 84 Z M 61 7 " clip-rule="nonzero"/></clipPath><clipPath id="e65e2b76a6"><path d="M 1 13 L 72 13 L 72 93.839844 L 1 93.839844 Z M 1 13 " clip-rule="nonzero"/></clipPath><clipPath id="c288ad5ee0"><path d="M 0.71875 0.238281 L 88 0.238281 L 88 61 L 0.71875 61 Z M 0.71875 0.238281 " clip-rule="nonzero"/></clipPath><clipPath id="4297e0e887"><path d="M 0.71875 0.238281 L 90 0.238281 L 90 70 L 0.71875 70 Z M 0.71875 0.238281 " clip-rule="nonzero"/></clipPath><clipPath id="f3656142ba"><path d="M 0.71875 6 L 91 6 L 91 78 L 0.71875 78 Z M 0.71875 6 " clip-rule="nonzero"/></clipPath><clipPath id="78e0a533cc"><path d="M 0.71875 15 L 92 15 L 92 86 L 0.71875 86 Z M 0.71875 15 " clip-rule="nonzero"/></clipPath><clipPath id="44b3ed3c29"><path d="M 0.71875 25 L 94 25 L 94 93.839844 L 0.71875 93.839844 Z M 0.71875 25 " clip-rule="nonzero"/></clipPath><clipPath id="88ac85da7d"><path d="M 0.71875 37 L 96 37 L 96 93.839844 L 0.71875 93.839844 Z M 0.71875 37 " clip-rule="nonzero"/></clipPath><clipPath id="e7285d3c70"><path d="M 39 0.238281 L 132.238281 0.238281 L 132.238281 51 L 39 51 Z M 39 0.238281 " clip-rule="nonzero"/></clipPath><clipPath id="dd0de03375"><path d="M 39 0.238281 L 132.238281 0.238281 L 132.238281 60 L 39 60 Z M 39 0.238281 " clip-rule="nonzero"/></clipPath><clipPath id="5efac7e3a0"><path d="M 41 0.238281 L 132.238281 0.238281 L 132.238281 68 L 41 68 Z M 41 0.238281 " clip-rule="nonzero"/></clipPath><clipPath id="1448c670d6"><path d="M 41 7 L 132.238281 7 L 132.238281 76 L 41 76 Z M 41 7 " clip-rule="nonzero"/></clipPath><clipPath id="68699ba6ea"><path d="M 42 17 L 132.238281 17 L 132.238281 87 L 42 87 Z M 42 17 " clip-rule="nonzero"/></clipPath><clipPath id="2a02bbe49a"><path d="M 43 29 L 132.238281 29 L 132.238281 93.839844 L 43 93.839844 Z M 43 29 " clip-rule="nonzero"/></clipPath><clipPath id="1856b29974"><rect x="0" width="133" y="0" height="94"/></clipPath><mask id="2cfbe8969c"><g filter="url(#2eddef0683)"><rect x="-37.5" width="450" fill="#000000" y="-37.499999" height="449.999989" fill-opacity="0.6"/></g></mask><clipPath id="92279d00d7"><path d="M 40 2 L 97.28125 2 L 97.28125 63 L 40 63 Z M 40 2 " clip-rule="nonzero"/></clipPath><clipPath id="8bd71c1b0c"><path d="M 0.078125 15 L 57 15 L 57 77 L 0.078125 77 Z M 0.078125 15 " clip-rule="nonzero"/></clipPath><clipPath id="db6a75cb44"><path d="M 0.078125 1 L 59 1 L 59 53 L 0.078125 53 Z M 0.078125 1 " clip-rule="nonzero"/></clipPath><clipPath id="74a58cbfdf"><path d="M 0.078125 7 L 61 7 L 61 59 L 0.078125 59 Z M 0.078125 7 " clip-rule="nonzero"/></clipPath><clipPath id="48a53ec3b7"><path d="M 0.078125 12 L 64 12 L 64 65 L 0.078125 65 Z M 0.078125 12 " clip-rule="nonzero"/></clipPath><clipPath id="1093eb7e08"><path d="M 0.078125 18 L 65 18 L 65 70 L 0.078125 70 Z M 0.078125 18 " clip-rule="nonzero"/></clipPath><clipPath id="c7245595b6"><path d="M 0.078125 25 L 68 25 L 68 77.359375 L 0.078125 77.359375 Z M 0.078125 25 " clip-rule="nonzero"/></clipPath><clipPath id="955c23ae51"><path d="M 0.078125 33 L 71 33 L 71 77.359375 L 0.078125 77.359375 Z M 0.078125 33 " clip-rule="nonzero"/></clipPath><clipPath id="6791fc4738"><path d="M 26 0.800781 L 97.28125 0.800781 L 97.28125 39 L 26 39 Z M 26 0.800781 " clip-rule="nonzero"/></clipPath><clipPath id="d0392d8dac"><path d="M 28 0.800781 L 97.28125 0.800781 L 97.28125 45 L 28 45 Z M 28 0.800781 " clip-rule="nonzero"/></clipPath><clipPath id="4cfae9bce1"><path d="M 30 0.800781 L 97.28125 0.800781 L 97.28125 51 L 30 51 Z M 30 0.800781 " clip-rule="nonzero"/></clipPath><clipPath id="79ca9f5c5c"><path d="M 31 5 L 97.28125 5 L 97.28125 57 L 31 57 Z M 31 5 " clip-rule="nonzero"/></clipPath><clipPath id="35deb42c7a"><path d="M 33 13 L 97.28125 13 L 97.28125 64 L 33 64 Z M 33 13 " clip-rule="nonzero"/></clipPath><clipPath id="75cce1ae85"><path d="M 35 21 L 97.28125 21 L 97.28125 72 L 35 72 Z M 35 21 " clip-rule="nonzero"/></clipPath><clipPath id="184a97a387"><rect x="0" width="98" y="0" height="78"/></clipPath><mask id="d81f512568"><g filter="url(#2eddef0683)"><rect x="-37.5" width="450" fill="#000000" y="-37.499999" height="449.999989" fill-opacity="0.6"/></g></mask><clipPath id="7b5afcfbdd"><path d="M 1 0.199219 L 117.839844 0.199219 L 117.839844 95.71875 L 1 95.71875 Z M 1 0.199219 " clip-rule="nonzero"/></clipPath><clipPath id="ad1747ac11"><rect x="0" width="118" y="0" height="96"/></clipPath><mask id="a2ec669efe"><g filter="url(#2eddef0683)"><rect x="-37.5" width="450" fill="#000000" y="-37.499999" height="449.999989" fill-opacity="0.6"/></g></mask><clipPath id="8e2ee66605"><path d="M 0.640625 0.320312 L 109.839844 0.320312 L 109.839844 79.519531 L 0.640625 79.519531 Z M 0.640625 0.320312 " clip-rule="nonzero"/></clipPath><clipPath id="6da5d05fcb"><rect x="0" width="110" y="0" height="80"/></clipPath></defs><g mask="url(#63dd3960b0)"><g transform="matrix(1, 0, 0, 1, 78, 119)"><g clip-path="url(#b4dd55c47b)"><g clip-path="url(#7810f16138)"><path fill="#ece3da" d="M 118.527344 59.125 C 118.527344 91.726562 92.101562 118.152344 59.5 118.152344 C 26.898438 118.152344 0.472656 91.726562 0.472656 59.125 C 0.472656 26.523438 26.898438 0.0976562 59.5 0.0976562 C 92.101562 0.0976562 118.527344 26.523438 118.527344 59.125 Z M 118.527344 59.125 " fill-opacity="1" fill-rule="nonzero"/></g></g></g></g><g mask="url(#9a1bd92a09)"><g transform="matrix(1, 0, 0, 1, 196, 179)"><g clip-path="url(#bdc0b582fc)"><g clip-path="url(#98cbad0428)"><path fill="#85b0dc" d="M 108.953125 137.34375 C 108.953125 137.34375 14.101562 98.640625 14.101562 98.640625 C 3.5625 94.339844 -1.496094 82.308594 2.804688 71.765625 C 2.804688 71.765625 26.609375 13.4375 26.609375 13.4375 C 30.910156 2.898438 42.941406 -2.160156 53.480469 2.140625 C 53.480469 2.140625 148.332031 40.847656 148.332031 40.847656 C 158.871094 45.148438 163.929688 57.179688 159.628906 67.71875 C 159.628906 67.71875 135.824219 126.046875 135.824219 126.046875 C 131.523438 136.589844 119.492188 141.648438 108.953125 137.34375 Z M 108.953125 137.34375 " fill-opacity="1" fill-rule="nonzero"/></g><path fill="#ece3da" d="M 104.253906 129.503906 C 104.253906 129.503906 23.085938 96.378906 23.085938 96.378906 C 12.542969 92.078125 7.488281 80.046875 11.789062 69.507812 C 11.789062 69.507812 31.445312 21.335938 31.445312 21.335938 C 35.746094 10.796875 47.777344 5.738281 58.320312 10.039062 C 58.320312 10.039062 139.488281 43.164062 139.488281 43.164062 C 150.027344 47.464844 155.085938 59.496094 150.78125 70.035156 C 150.78125 70.035156 131.125 118.207031 131.125 118.207031 C 126.824219 128.746094 114.792969 133.804688 104.253906 129.503906 Z M 104.253906 129.503906 " fill-opacity="1" fill-rule="nonzero"/><path fill="#85b0dc" d="M 66.132812 106.214844 C 66.132812 106.214844 57.941406 102.871094 57.941406 102.871094 C 57.941406 102.871094 66.683594 81.445312 66.683594 81.445312 C 66.683594 81.445312 74.875 84.789062 74.875 84.789062 C 74.875 84.789062 66.132812 106.214844 66.132812 106.214844 Z M 66.132812 106.214844 " fill-opacity="1" fill-rule="nonzero"/><path fill="#e9b858" d="M 78.417969 111.226562 C 78.417969 111.226562 70.226562 107.886719 70.226562 107.886719 C 70.226562 107.886719 81.800781 79.53125 81.800781 79.53125 C 81.800781 79.53125 89.992188 82.871094 89.992188 82.871094 C 89.992188 82.871094 78.417969 111.226562 78.417969 111.226562 Z M 78.417969 111.226562 " fill-opacity="1" fill-rule="nonzero"/><path fill="#ec5e5c" d="M 91.335938 116.5 C 91.335938 116.5 83.144531 113.15625 83.144531 113.15625 C 83.144531 113.15625 97.160156 78.816406 97.160156 78.816406 C 97.160156 78.816406 105.351562 82.15625 105.351562 82.15625 C 105.351562 82.15625 91.335938 116.5 91.335938 116.5 Z M 91.335938 116.5 " fill-opacity="1" fill-rule="nonzero"/><path fill="#85b0dc" d="M 99.214844 119.714844 C 99.214844 119.714844 51.953125 100.429688 51.953125 100.429688 C 51.953125 100.429688 52.210938 99.796875 52.210938 99.796875 C 52.210938 99.796875 99.46875 119.082031 99.46875 119.082031 C 99.46875 119.082031 99.214844 119.714844 99.214844 119.714844 Z M 99.214844 119.714844 " fill-opacity="1" fill-rule="nonzero"/><path fill="#85b0dc" d="M 51.953125 100.429688 C 51.953125 100.429688 70.339844 55.375 70.339844 55.375 C 70.339844 55.375 70.96875 55.632812 70.96875 55.632812 C 70.96875 55.632812 52.585938 100.683594 52.585938 100.683594 C 52.585938 100.683594 51.953125 100.429688 51.953125 100.429688 Z M 51.953125 100.429688 " fill-opacity="1" fill-rule="nonzero"/><path fill="#85b0dc" d="M 119.890625 87.726562 C 119.890625 87.726562 115.957031 86.117188 115.957031 86.117188 C 115.914062 86.101562 115.890625 86.050781 115.910156 86.003906 C 115.910156 86.003906 117.515625 82.070312 117.515625 82.070312 C 117.53125 82.027344 117.582031 82.003906 117.628906 82.023438 C 117.628906 82.023438 121.5625 83.628906 121.5625 83.628906 C 121.605469 83.648438 121.628906 83.699219 121.609375 83.742188 C 121.609375 83.742188 120.003906 87.675781 120.003906 87.675781 C 119.988281 87.722656 119.9375 87.742188 119.890625 87.726562 Z M 119.890625 87.726562 " fill-opacity="1" fill-rule="nonzero"/><path fill="#e9b858" d="M 117.707031 93.082031 C 117.707031 93.082031 113.769531 91.472656 113.769531 91.472656 C 113.726562 91.457031 113.707031 91.40625 113.722656 91.363281 C 113.722656 91.363281 115.328125 87.425781 115.328125 87.425781 C 115.347656 87.382812 115.398438 87.359375 115.441406 87.378906 C 115.441406 87.378906 119.378906 88.984375 119.378906 88.984375 C 119.421875 89.003906 119.441406 89.054688 119.425781 89.097656 C 119.425781 89.097656 117.820312 93.03125 117.820312 93.03125 C 117.800781 93.078125 117.75 93.097656 117.707031 93.082031 Z M 117.707031 93.082031 " fill-opacity="1" fill-rule="nonzero"/><path fill="#ec5e5c" d="M 115.519531 98.4375 C 115.519531 98.4375 111.585938 96.832031 111.585938 96.832031 C 111.539062 96.8125 111.519531 96.761719 111.539062 96.71875 C 111.539062 96.71875 113.144531 92.78125 113.144531 92.78125 C 113.160156 92.738281 113.210938 92.714844 113.257812 92.734375 C 113.257812 92.734375 117.191406 94.339844 117.191406 94.339844 C 117.234375 94.359375 117.257812 94.410156 117.238281 94.453125 C 117.238281 94.453125 115.632812 98.390625 115.632812 98.390625 C 115.617188 98.433594 115.566406 98.453125 115.519531 98.4375 Z M 115.519531 98.4375 " fill-opacity="1" fill-rule="nonzero"/><path fill="#85b0dc" d="M 137.109375 92.976562 C 137.109375 92.976562 121.773438 86.714844 121.773438 86.714844 C 121.773438 86.714844 122.253906 85.535156 122.253906 85.535156 C 122.253906 85.535156 137.589844 91.796875 137.589844 91.796875 C 137.589844 91.796875 137.109375 92.976562 137.109375 92.976562 Z M 137.109375 92.976562 " fill-opacity="1" fill-rule="nonzero"/><path fill="#e9b858" d="M 134.863281 98.480469 C 134.863281 98.480469 119.527344 92.222656 119.527344 92.222656 C 119.527344 92.222656 120.007812 91.042969 120.007812 91.042969 C 120.007812 91.042969 135.34375 97.300781 135.34375 97.300781 C 135.34375 97.300781 134.863281 98.480469 134.863281 98.480469 Z M 134.863281 98.480469 " fill-opacity="1" fill-rule="nonzero"/><path fill="#ec5e5c" d="M 132.617188 103.984375 C 132.617188 103.984375 117.277344 97.726562 117.277344 97.726562 C 117.277344 97.726562 117.761719 96.546875 117.761719 96.546875 C 117.761719 96.546875 133.097656 102.804688 133.097656 102.804688 C 133.097656 102.804688 132.617188 103.984375 132.617188 103.984375 Z M 132.617188 103.984375 " fill-opacity="1" fill-rule="nonzero"/><path fill="#ec5e5c" d="M 71.023438 38.253906 C 67.34375 46.792969 57.4375 50.730469 48.898438 47.050781 C 40.359375 43.371094 36.421875 33.46875 40.101562 24.929688 C 43.78125 16.386719 53.6875 12.449219 62.226562 16.128906 C 70.765625 19.808594 74.703125 29.714844 71.023438 38.253906 Z M 71.023438 38.253906 " fill-opacity="1" fill-rule="nonzero"/><path fill="#85b0dc" d="M 62.226562 16.128906 C 62.226562 16.128906 48.722656 47.464844 48.722656 47.464844 C 48.722656 47.464844 33.4375 40.390625 40.101562 24.929688 C 46.761719 9.464844 62.226562 16.128906 62.226562 16.128906 Z M 62.226562 16.128906 " fill-opacity="1" fill-rule="nonzero"/><path fill="#e9b858" d="M 71.023438 38.253906 C 71.023438 38.253906 55.5625 31.589844 55.5625 31.589844 C 55.5625 31.589844 48.722656 47.464844 48.722656 47.464844 C 48.722656 47.464844 64.15625 53.625 71.023438 38.253906 Z M 71.023438 38.253906 " fill-opacity="1" fill-rule="nonzero"/><path fill="#85b0dc" d="M 80.839844 39.425781 C 80.839844 39.425781 78.101562 38.308594 78.101562 38.308594 C 78.058594 38.289062 78.035156 38.238281 78.054688 38.195312 C 78.054688 38.195312 79.171875 35.457031 79.171875 35.457031 C 79.191406 35.414062 79.242188 35.390625 79.285156 35.410156 C 79.285156 35.410156 82.023438 36.527344 82.023438 36.527344 C 82.066406 36.546875 82.089844 36.597656 82.070312 36.640625 C 82.070312 36.640625 80.953125 39.378906 80.953125 39.378906 C 80.9375 39.421875 80.886719 39.445312 80.839844 39.425781 Z M 80.839844 39.425781 " fill-opacity="1" fill-rule="nonzero"/><path fill="#e9b858" d="M 79.292969 43.21875 C 79.292969 43.21875 76.554688 42.101562 76.554688 42.101562 C 76.511719 42.082031 76.488281 42.03125 76.507812 41.988281 C 76.507812 41.988281 77.625 39.25 77.625 39.25 C 77.644531 39.203125 77.695312 39.183594 77.738281 39.199219 C 77.738281 39.199219 80.476562 40.320312 80.476562 40.320312 C 80.519531 40.335938 80.542969 40.386719 80.523438 40.429688 C 80.523438 40.429688 79.40625 43.167969 79.40625 43.167969 C 79.386719 43.214844 79.339844 43.234375 79.292969 43.21875 Z M 79.292969 43.21875 " fill-opacity="1" fill-rule="nonzero"/><path fill="#ec5e5c" d="M 77.746094 47.007812 C 77.746094 47.007812 75.007812 45.890625 75.007812 45.890625 C 74.964844 45.871094 74.941406 45.824219 74.960938 45.777344 C 74.960938 45.777344 76.078125 43.039062 76.078125 43.039062 C 76.097656 42.996094 76.148438 42.972656 76.191406 42.992188 C 76.191406 42.992188 78.929688 44.109375 78.929688 44.109375 C 78.972656 44.128906 78.996094 44.179688 78.976562 44.222656 C 78.976562 44.222656 77.859375 46.960938 77.859375 46.960938 C 77.839844 47.003906 77.789062 47.027344 77.746094 47.007812 Z M 77.746094 47.007812 " fill-opacity="1" fill-rule="nonzero"/><path fill="#85b0dc" d="M 92.070312 43.167969 C 92.070312 43.167969 82.429688 39.234375 82.429688 39.234375 C 82.429688 39.234375 82.730469 38.492188 82.730469 38.492188 C 82.730469 38.492188 92.375 42.425781 92.375 42.425781 C 92.375 42.425781 92.070312 43.167969 92.070312 43.167969 Z M 92.070312 43.167969 " fill-opacity="1" fill-rule="nonzero"/><path fill="#e9b858" d="M 90.660156 46.628906 C 90.660156 46.628906 81.015625 42.695312 81.015625 42.695312 C 81.015625 42.695312 81.320312 41.953125 81.320312 41.953125 C 81.320312 41.953125 90.960938 45.886719 90.960938 45.886719 C 90.960938 45.886719 90.660156 46.628906 90.660156 46.628906 Z M 90.660156 46.628906 " fill-opacity="1" fill-rule="nonzero"/><path fill="#ec5e5c" d="M 89.246094 50.089844 C 89.246094 50.089844 79.601562 46.15625 79.601562 46.15625 C 79.601562 46.15625 79.90625 45.414062 79.90625 45.414062 C 79.90625 45.414062 89.550781 49.347656 89.550781 49.347656 C 89.550781 49.347656 89.246094 50.089844 89.246094 50.089844 Z M 89.246094 50.089844 " fill-opacity="1" fill-rule="nonzero"/><path fill="#e9b858" d="M 38.902344 98.390625 C 38.902344 98.390625 19.636719 90.308594 19.636719 90.308594 C 16.171875 88.851562 14.539062 84.859375 15.992188 81.390625 C 15.992188 81.390625 29.121094 50.109375 29.121094 50.109375 C 30.578125 46.640625 34.570312 45.011719 38.039062 46.464844 C 38.039062 46.464844 57.304688 54.550781 57.304688 54.550781 C 60.769531 56.007812 62.402344 60 60.945312 63.464844 C 60.945312 63.464844 47.820312 94.746094 47.820312 94.746094 C 46.363281 98.214844 42.371094 99.847656 38.902344 98.390625 Z M 38.902344 98.390625 " fill-opacity="1" fill-rule="nonzero"/><path fill="#ece3da" d="M 44.875 96.035156 C 44.875 96.035156 17.152344 84.335938 17.152344 84.335938 C 17.152344 84.335938 17.898438 82.566406 17.898438 82.566406 C 17.898438 82.566406 45.621094 94.269531 45.621094 94.269531 C 45.621094 94.269531 44.875 96.035156 44.875 96.035156 Z M 44.875 96.035156 " fill-opacity="1" fill-rule="nonzero"/><path fill="#ece3da" d="M 47.460938 89.886719 C 47.460938 89.886719 19.738281 78.183594 19.738281 78.183594 C 19.738281 78.183594 20.484375 76.417969 20.484375 76.417969 C 20.484375 76.417969 48.207031 88.117188 48.207031 88.117188 C 48.207031 88.117188 47.460938 89.886719 47.460938 89.886719 Z M 47.460938 89.886719 " fill-opacity="1" fill-rule="nonzero"/><path fill="#ece3da" d="M 59.070312 62.359375 C 59.070312 62.359375 31.347656 50.65625 31.347656 50.65625 C 31.347656 50.65625 32.09375 48.886719 32.09375 48.886719 C 32.09375 48.886719 59.816406 60.589844 59.816406 60.589844 C 59.816406 60.589844 59.070312 62.359375 59.070312 62.359375 Z M 59.070312 62.359375 " fill-opacity="1" fill-rule="nonzero"/><path fill="#ece3da" d="M 56.085938 69.429688 C 56.085938 69.429688 28.363281 57.730469 28.363281 57.730469 C 28.363281 57.730469 29.109375 55.960938 29.109375 55.960938 C 29.109375 55.960938 56.832031 67.664062 56.832031 67.664062 C 56.832031 67.664062 56.085938 69.429688 56.085938 69.429688 Z M 56.085938 69.429688 " fill-opacity="1" fill-rule="nonzero"/><path fill="#ece3da" d="M 53.101562 76.503906 C 53.101562 76.503906 25.378906 64.800781 25.378906 64.800781 C 25.378906 64.800781 26.125 63.03125 26.125 63.03125 C 26.125 63.03125 53.847656 74.734375 53.847656 74.734375 C 53.847656 74.734375 53.101562 76.503906 53.101562 76.503906 Z M 53.101562 76.503906 " fill-opacity="1" fill-rule="nonzero"/><path fill="#ece3da" d="M 50.117188 83.574219 C 50.117188 83.574219 22.394531 71.871094 22.394531 71.871094 C 22.394531 71.871094 23.140625 70.105469 23.140625 70.105469 C 23.140625 70.105469 50.863281 81.804688 50.863281 81.804688 C 50.863281 81.804688 50.117188 83.574219 50.117188 83.574219 Z M 50.117188 83.574219 " fill-opacity="1" fill-rule="nonzero"/><path fill="#e9b858" d="M 145.394531 65.703125 C 145.394531 65.703125 98.347656 46.828125 98.347656 46.828125 C 98.347656 46.828125 101.523438 38.90625 101.523438 38.90625 C 101.523438 38.90625 148.570312 57.785156 148.570312 57.785156 C 148.570312 57.785156 145.394531 65.703125 145.394531 65.703125 Z M 145.394531 65.703125 " fill-opacity="1" fill-rule="nonzero"/><path fill="#85b0dc" d="M 105.394531 47.929688 C 105.394531 47.929688 99.914062 45.730469 99.914062 45.730469 C 99.914062 45.730469 102.113281 40.25 102.113281 40.25 C 102.113281 40.25 107.59375 42.449219 107.59375 42.449219 C 107.59375 42.449219 105.394531 47.929688 105.394531 47.929688 Z M 105.394531 47.929688 " fill-opacity="1" fill-rule="nonzero"/><path fill="#ece3da" d="M 102.789062 45.429688 C 102.789062 45.429688 101.59375 43.046875 101.59375 43.046875 C 101.59375 43.046875 102.273438 42.703125 102.273438 42.703125 C 102.273438 42.703125 103.46875 45.085938 103.46875 45.085938 C 103.46875 45.085938 102.789062 45.429688 102.789062 45.429688 Z M 102.789062 45.429688 " fill-opacity="1" fill-rule="nonzero"/><path fill="#ece3da" d="M 102.445312 44.75 C 102.445312 44.75 106.191406 42.871094 106.191406 42.871094 C 106.191406 42.871094 106.53125 43.550781 106.53125 43.550781 C 106.53125 43.550781 102.789062 45.429688 102.789062 45.429688 C 102.789062 45.429688 102.445312 44.75 102.445312 44.75 Z M 102.445312 44.75 " fill-opacity="1" fill-rule="nonzero"/><path fill="#ece3da" d="M 141.617188 58.589844 C 141.617188 58.589844 107.929688 44.992188 107.929688 44.992188 C 107.929688 44.992188 108.496094 43.59375 108.496094 43.59375 C 108.496094 43.59375 142.179688 57.191406 142.179688 57.191406 C 142.179688 57.191406 141.617188 58.589844 141.617188 58.589844 Z M 141.617188 58.589844 " fill-opacity="1" fill-rule="nonzero"/><path fill="#ece3da" d="M 134.527344 59.070312 C 134.527344 59.070312 106.773438 47.867188 106.773438 47.867188 C 106.773438 47.867188 107.335938 46.46875 107.335938 46.46875 C 107.335938 46.46875 135.09375 57.675781 135.09375 57.675781 C 135.09375 57.675781 134.527344 59.070312 134.527344 59.070312 Z M 134.527344 59.070312 " fill-opacity="1" fill-rule="nonzero"/><path fill="#ec5e5c" d="M 140.183594 77.507812 C 140.183594 77.507812 93.136719 58.632812 93.136719 58.632812 C 93.136719 58.632812 96.316406 50.714844 96.316406 50.714844 C 96.316406 50.714844 143.363281 69.589844 143.363281 69.589844 C 143.363281 69.589844 140.183594 77.507812 140.183594 77.507812 Z M 140.183594 77.507812 " fill-opacity="1" fill-rule="nonzero"/><path fill="#e9b858" d="M 100.1875 59.734375 C 100.1875 59.734375 94.707031 57.535156 94.707031 57.535156 C 94.707031 57.535156 96.90625 52.058594 96.90625 52.058594 C 96.90625 52.058594 102.382812 54.253906 102.382812 54.253906 C 102.382812 54.253906 100.1875 59.734375 100.1875 59.734375 Z M 100.1875 59.734375 " fill-opacity="1" fill-rule="nonzero"/><path fill="#ece3da" d="M 97.578125 57.234375 C 97.578125 57.234375 96.382812 54.851562 96.382812 54.851562 C 96.382812 54.851562 97.066406 54.511719 97.066406 54.511719 C 97.066406 54.511719 98.257812 56.894531 98.257812 56.894531 C 98.257812 56.894531 97.578125 57.234375 97.578125 57.234375 Z M 97.578125 57.234375 " fill-opacity="1" fill-rule="nonzero"/><path fill="#ece3da" d="M 97.238281 56.554688 C 97.238281 56.554688 100.980469 54.675781 100.980469 54.675781 C 100.980469 54.675781 101.324219 55.355469 101.324219 55.355469 C 101.324219 55.355469 97.578125 57.234375 97.578125 57.234375 C 97.578125 57.234375 97.238281 56.554688 97.238281 56.554688 Z M 97.238281 56.554688 " fill-opacity="1" fill-rule="nonzero"/><path fill="#ece3da" d="M 136.410156 70.394531 C 136.410156 70.394531 102.722656 56.796875 102.722656 56.796875 C 102.722656 56.796875 103.289062 55.398438 103.289062 55.398438 C 103.289062 55.398438 136.972656 68.996094 136.972656 68.996094 C 136.972656 68.996094 136.410156 70.394531 136.410156 70.394531 Z M 136.410156 70.394531 " fill-opacity="1" fill-rule="nonzero"/><path fill="#ece3da" d="M 129.320312 70.878906 C 129.320312 70.878906 101.566406 59.671875 101.566406 59.671875 C 101.566406 59.671875 102.128906 58.273438 102.128906 58.273438 C 102.128906 58.273438 129.882812 69.480469 129.882812 69.480469 C 129.882812 69.480469 129.320312 70.878906 129.320312 70.878906 Z M 129.320312 70.878906 " fill-opacity="1" fill-rule="nonzero"/><path fill="#85b0dc" d="M 72.304688 137.90625 C 72.304688 137.90625 34.816406 122.609375 34.816406 122.609375 C 34.816406 122.609375 40.441406 108.824219 40.441406 108.824219 C 40.441406 108.824219 77.929688 124.121094 77.929688 124.121094 C 77.929688 124.121094 72.304688 137.90625 72.304688 137.90625 Z M 72.304688 137.90625 " fill-opacity="1" fill-rule="nonzero"/><path fill="#85b0dc" d="M 90.335938 160.78125 C 90.335938 160.78125 10.765625 128.3125 10.765625 128.3125 C 10.765625 128.3125 16.390625 114.527344 16.390625 114.527344 C 16.390625 114.527344 95.960938 146.996094 95.960938 146.996094 C 95.960938 146.996094 90.335938 160.78125 90.335938 160.78125 Z M 90.335938 160.78125 " fill-opacity="1" fill-rule="nonzero"/></g></g></g><g mask="url(#dd1506b890)"><g transform="matrix(1, 0, 0, 1, 59, 8)"><g clip-path="url(#2d048cad30)"><path fill="#85b0dc" d="M 92.558594 20.636719 C 92.558594 20.636719 161.59375 42.089844 161.59375 42.089844 C 161.59375 42.089844 140.59375 121.65625 140.59375 121.65625 C 140.59375 121.65625 71.117188 101.882812 71.117188 101.882812 C 71.117188 101.882812 92.558594 20.636719 92.558594 20.636719 Z M 92.558594 20.636719 " fill-opacity="1" fill-rule="nonzero"/><g clip-path="url(#8e7d00d774)"><path fill="#85b0dc" d="M 92.558594 20.636719 C 92.558594 20.636719 21.929688 5.230469 21.929688 5.230469 C 21.929688 5.230469 0.929688 84.796875 0.929688 84.796875 C 0.929688 84.796875 71.117188 101.882812 71.117188 101.882812 C 71.117188 101.882812 92.558594 20.636719 92.558594 20.636719 Z M 92.558594 20.636719 " fill-opacity="1" fill-rule="nonzero"/></g><path fill="#ece3da" d="M 90.859375 27.082031 C 90.859375 27.082031 71.917969 -4.558594 25.390625 9.804688 C 25.390625 9.804688 6.796875 80.265625 6.796875 80.265625 C 6.796875 80.265625 47.324219 69.578125 72.003906 98.527344 C 72.003906 98.527344 90.859375 27.082031 90.859375 27.082031 Z M 90.859375 27.082031 " fill-opacity="1" fill-rule="nonzero"/><path fill="#ece3da" d="M 6.800781 80.242188 C 6.800781 80.242188 72.003906 98.527344 72.003906 98.527344 C 72.003906 98.527344 69.292969 80.214844 43.777344 73.480469 C 18.265625 66.75 6.800781 80.242188 6.800781 80.242188 Z M 6.800781 80.242188 " fill-opacity="1" fill-rule="nonzero"/><path fill="#ece3da" d="M 137.46875 115.804688 C 137.46875 115.804688 72.003906 98.527344 72.003906 98.527344 C 72.003906 98.527344 83.394531 83.9375 108.910156 90.671875 C 134.425781 97.40625 137.46875 115.804688 137.46875 115.804688 Z M 137.46875 115.804688 " fill-opacity="1" fill-rule="nonzero"/><path fill="#ece3da" d="M 156.324219 44.359375 C 156.324219 44.359375 137.382812 12.71875 90.859375 27.082031 C 90.859375 27.082031 72.089844 98.199219 72.089844 98.199219 C 72.089844 98.199219 112.789062 86.855469 137.46875 115.804688 C 137.46875 115.804688 156.324219 44.359375 156.324219 44.359375 Z M 156.324219 44.359375 " fill-opacity="1" fill-rule="nonzero"/><g clip-path="url(#90185959fd)"><path stroke-linecap="butt" transform="matrix(0.347222, 0, 0, 0.347222, 57.569787, 19.179511)" fill="none" stroke-linejoin="miter" d="M -79.434745 -10.596993 C -79.434745 -10.596993 -40.430991 -26.166995 7.865263 -14.196994 C 30.781516 -8.526993 53.889018 4.444258 79.43777 26.15676 " stroke="#85b0dc" stroke-width="7" stroke-opacity="1" stroke-miterlimit="10"/></g><g clip-path="url(#aa4c4b5cf1)"><path stroke-linecap="butt" transform="matrix(0.347222, 0, 0, 0.347222, 54.770478, 29.805205)" fill="none" stroke-linejoin="miter" d="M -79.438984 -10.598991 C -79.438984 -10.598991 -40.43523 -26.157743 7.872275 -14.198992 C 30.777277 -8.528991 53.896029 4.44226 79.444781 26.166012 " stroke="#85b0dc" stroke-width="7" stroke-opacity="1" stroke-miterlimit="10"/></g><g clip-path="url(#4d756f658b)"><path stroke-linecap="butt" transform="matrix(0.347222, 0, 0, 0.347222, 52.835413, 39.366661)" fill="none" stroke-linejoin="miter" d="M -79.434747 -10.595984 C -79.434747 -10.595984 -40.430994 -26.165985 7.865261 -14.195984 C 30.781513 -8.525983 53.889015 4.445268 79.437767 26.15777 " stroke="#85b0dc" stroke-width="7" stroke-opacity="1" stroke-miterlimit="10"/></g><g clip-path="url(#b4ae04d376)"><path stroke-linecap="butt" transform="matrix(0.347222, 0, 0, 0.347222, 49.859025, 48.928121)" fill="none" stroke-linejoin="miter" d="M -79.435248 -10.59299 C -79.435248 -10.59299 -40.431494 -26.162991 7.86476 -14.20424 C 30.781012 -8.522989 53.888514 4.448262 79.437267 26.160764 " stroke="#85b0dc" stroke-width="7" stroke-opacity="1" stroke-miterlimit="10"/></g><g clip-path="url(#5a1fde5b5b)"><path stroke-linecap="butt" transform="matrix(0.347222, 0, 0, 0.347222, 46.882631, 61.267007)" fill="none" stroke-linejoin="miter" d="M -79.435735 -10.601482 C -79.435735 -10.601482 -40.431981 -26.160234 7.875523 -14.201483 C 30.780525 -8.531482 53.888027 4.439769 79.43678 26.163521 " stroke="#85b0dc" stroke-width="7" stroke-opacity="1" stroke-miterlimit="10"/></g><g clip-path="url(#74233d1b68)"><path stroke-linecap="butt" transform="matrix(0.347222, 0, 0, 0.347222, 43.41041, 74.808673)" fill="none" stroke-linejoin="miter" d="M -79.436988 -10.597729 C -79.436988 -10.597729 -40.433234 -26.156481 7.874271 -14.197729 C 30.779273 -8.527729 53.898025 4.443522 79.435527 26.156024 " stroke="#85b0dc" stroke-width="7" stroke-opacity="1" stroke-miterlimit="10"/></g><g clip-path="url(#f3fdb5e9a7)"><path stroke-linecap="butt" transform="matrix(0.347222, 0, 0, 0.347222, 124.119788, 36.909371)" fill="none" stroke-linejoin="miter" d="M -78.363748 -15.79274 C -78.363748 -15.79274 -38.594994 -29.281491 9.01501 -14.79149 C 31.593762 -7.917739 53.992514 6.246012 78.360016 29.274765 " stroke="#85b0dc" stroke-width="7" stroke-opacity="1" stroke-miterlimit="10"/></g><g clip-path="url(#2030865552)"><path stroke-linecap="butt" transform="matrix(0.347222, 0, 0, 0.347222, 120.765265, 47.373262)" fill="none" stroke-linejoin="miter" d="M -78.366472 -15.789996 C -78.366472 -15.789996 -38.586468 -29.278747 9.012286 -14.788746 C 31.602288 -7.914995 53.98979 6.248756 78.357293 29.277508 " stroke="#85b0dc" stroke-width="7" stroke-opacity="1" stroke-miterlimit="10"/></g><g clip-path="url(#3f844ad822)"><path stroke-linecap="butt" transform="matrix(0.347222, 0, 0, 0.347222, 118.329846, 56.819433)" fill="none" stroke-linejoin="miter" d="M -78.361215 -15.792469 C -78.361215 -15.792469 -38.592461 -29.281221 9.017543 -14.791219 C 31.596295 -7.917469 53.995047 6.246283 78.362549 29.275035 " stroke="#85b0dc" stroke-width="7" stroke-opacity="1" stroke-miterlimit="10"/></g><g clip-path="url(#a8d9531f55)"><path stroke-linecap="butt" transform="matrix(0.347222, 0, 0, 0.347222, 114.854152, 66.211103)" fill="none" stroke-linejoin="miter" d="M -78.363716 -15.795478 C -78.363716 -15.795478 -38.594962 -29.28423 9.015042 -14.794228 C 31.593794 -7.920478 53.992546 6.254524 78.360049 29.283276 " stroke="#85b0dc" stroke-width="7" stroke-opacity="1" stroke-miterlimit="10"/></g><g clip-path="url(#129a79a5a2)"><path stroke-linecap="butt" transform="matrix(0.347222, 0, 0, 0.347222, 111.232284, 78.376381)" fill="none" stroke-linejoin="miter" d="M -78.361484 -15.787728 C -78.361484 -15.787728 -38.592731 -29.276479 9.017274 -14.786478 C 31.596026 -7.923977 53.994778 6.251024 78.36228 29.279776 " stroke="#85b0dc" stroke-width="7" stroke-opacity="1" stroke-miterlimit="10"/></g><g clip-path="url(#af3b7411c3)"><path stroke-linecap="butt" transform="matrix(0.347222, 0, 0, 0.347222, 107.05241, 91.716317)" fill="none" stroke-linejoin="miter" d="M -78.360949 -15.787993 C -78.360949 -15.787993 -38.592196 -29.276745 9.017809 -14.786743 C 31.596561 -7.924243 53.995313 6.250759 78.362815 29.279511 " stroke="#85b0dc" stroke-width="7" stroke-opacity="1" stroke-miterlimit="10"/></g></g></g></g><g mask="url(#d7671297f5)"><g transform="matrix(1, 0, 0, 1, 48, 222)"><g clip-path="url(#1856b29974)"><g clip-path="url(#f8adad3fe1)"><path fill="#ec5e5c" d="M 61.550781 13.945312 C 61.550781 13.945312 121.925781 7.65625 121.925781 7.65625 C 121.925781 7.65625 132.050781 76.011719 132.050781 76.011719 C 132.050781 76.011719 71.886719 83.742188 71.886719 83.742188 C 71.886719 83.742188 61.550781 13.945312 61.550781 13.945312 Z M 61.550781 13.945312 " fill-opacity="1" fill-rule="nonzero"/></g><g clip-path="url(#e65e2b76a6)"><path fill="#ec5e5c" d="M 61.550781 13.945312 C 61.550781 13.945312 1.945312 25.425781 1.945312 25.425781 C 1.945312 25.425781 12.066406 93.78125 12.066406 93.78125 C 12.066406 93.78125 71.886719 83.742188 71.886719 83.742188 C 71.886719 83.742188 61.550781 13.945312 61.550781 13.945312 Z M 61.550781 13.945312 " fill-opacity="1" fill-rule="nonzero"/></g><path fill="#ece3da" d="M 62.371094 19.480469 C 62.371094 19.480469 37.28125 1.332031 6.128906 27.8125 C 6.128906 27.8125 15.09375 88.34375 15.09375 88.34375 C 15.09375 88.34375 42.835938 66.683594 71.460938 80.859375 C 71.460938 80.859375 62.371094 19.480469 62.371094 19.480469 Z M 62.371094 19.480469 " fill-opacity="1" fill-rule="nonzero"/><path fill="#ece3da" d="M 15.089844 88.324219 C 15.089844 88.324219 71.460938 80.859375 71.460938 80.859375 C 71.460938 80.859375 63.3125 67.625 41.390625 70.871094 C 19.472656 74.117188 15.089844 88.324219 15.089844 88.324219 Z M 15.089844 88.324219 " fill-opacity="1" fill-rule="nonzero"/><path fill="#ece3da" d="M 127.703125 72.527344 C 127.703125 72.527344 71.460938 80.859375 71.460938 80.859375 C 71.460938 80.859375 75.425781 65.828125 97.34375 62.582031 C 119.265625 59.335938 127.703125 72.527344 127.703125 72.527344 Z M 127.703125 72.527344 " fill-opacity="1" fill-rule="nonzero"/><path fill="#ece3da" d="M 118.613281 11.152344 C 118.613281 11.152344 93.523438 -7 62.371094 19.480469 C 62.371094 19.480469 71.417969 80.578125 71.417969 80.578125 C 71.417969 80.578125 99.078125 58.355469 127.703125 72.527344 C 127.703125 72.527344 118.613281 11.152344 118.613281 11.152344 Z M 118.613281 11.152344 " fill-opacity="1" fill-rule="nonzero"/><g clip-path="url(#c288ad5ee0)"><path stroke-linecap="butt" transform="matrix(0.347222, 0, 0, 0.347222, 34.959023, 24.630892)" fill="none" stroke-linejoin="miter" d="M -67.393241 17.431783 C -67.393241 17.431783 -42.440739 -7.48697 -1.198235 -14.23697 C 18.365517 -17.43197 40.483019 -15.06947 67.393021 -6.766969 " stroke="#e9b858" stroke-width="6" stroke-opacity="1" stroke-miterlimit="10"/></g><g clip-path="url(#4297e0e887)"><path stroke-linecap="butt" transform="matrix(0.347222, 0, 0, 0.347222, 36.314926, 33.757952)" fill="none" stroke-linejoin="miter" d="M -67.394492 17.4371 C -67.394492 17.4371 -42.44199 -7.481652 -1.199486 -14.231653 C 18.364266 -17.437903 40.493018 -15.075403 67.39177 -6.772902 " stroke="#e9b858" stroke-width="6" stroke-opacity="1" stroke-miterlimit="10"/></g><g clip-path="url(#f3656142ba)"><path stroke-linecap="butt" transform="matrix(0.347222, 0, 0, 0.347222, 37.985411, 41.777414)" fill="none" stroke-linejoin="miter" d="M -67.390491 17.4373 C -67.390491 17.4373 -42.437989 -7.481453 -1.195485 -14.231453 C 18.357017 -17.437704 40.485769 -15.075203 67.395772 -6.772703 " stroke="#e9b858" stroke-width="6" stroke-opacity="1" stroke-miterlimit="10"/></g><g clip-path="url(#78e0a533cc)"><path stroke-linecap="butt" transform="matrix(0.347222, 0, 0, 0.347222, 38.852423, 50.141291)" fill="none" stroke-linejoin="miter" d="M -67.389985 17.435584 C -67.389985 17.435584 -42.437482 -7.483169 -1.206228 -14.233169 C 18.357523 -17.439419 40.486275 -15.076919 67.396278 -6.774419 " stroke="#e9b858" stroke-width="6" stroke-opacity="1" stroke-miterlimit="10"/></g><g clip-path="url(#44b3ed3c29)"><path stroke-linecap="butt" transform="matrix(0.347222, 0, 0, 0.347222, 40.638544, 60.648937)" fill="none" stroke-linejoin="miter" d="M -67.392762 17.436064 C -67.392762 17.436064 -42.44026 -7.482688 -1.197756 -14.232689 C 18.354746 -17.438939 40.483498 -15.076439 67.3935 -6.762688 " stroke="#e9b858" stroke-width="6" stroke-opacity="1" stroke-miterlimit="10"/></g><g clip-path="url(#88ac85da7d)"><path stroke-linecap="butt" transform="matrix(0.347222, 0, 0, 0.347222, 42.439928, 72.249269)" fill="none" stroke-linejoin="miter" d="M -67.394499 17.439608 C -67.394499 17.439608 -42.441997 -7.479144 -1.199493 -14.229145 C 18.364259 -17.435395 40.493011 -15.072895 67.391763 -6.770394 " stroke="#e9b858" stroke-width="6" stroke-opacity="1" stroke-miterlimit="10"/></g><g clip-path="url(#e7285d3c70)"><path stroke-linecap="butt" transform="matrix(0.347222, 0, 0, 0.347222, 92.067696, 15.568725)" fill="none" stroke-linejoin="miter" d="M -67.931221 15.158324 C -67.931221 15.158324 -41.707469 -8.410428 -0.172465 -12.989178 C 19.537537 -15.160428 41.508789 -11.627928 67.935042 -1.919177 " stroke="#e9b858" stroke-width="6" stroke-opacity="1" stroke-miterlimit="10"/></g><g clip-path="url(#dd0de03375)"><path stroke-linecap="butt" transform="matrix(0.347222, 0, 0, 0.347222, 92.941313, 24.754496)" fill="none" stroke-linejoin="miter" d="M -67.938487 15.152054 C -67.938487 15.152054 -41.703485 -8.416698 -0.168481 -12.984198 C 19.530271 -15.155449 41.501523 -11.634198 67.939025 -1.925447 " stroke="#e9b858" stroke-width="6" stroke-opacity="1" stroke-miterlimit="10"/></g><g clip-path="url(#5efac7e3a0)"><path stroke-linecap="butt" transform="matrix(0.347222, 0, 0, 0.347222, 94.187837, 32.851009)" fill="none" stroke-linejoin="miter" d="M -67.939726 15.155347 C -67.939726 15.155347 -41.704724 -8.413405 -0.16972 -12.992156 C 19.529032 -15.152156 41.500284 -11.630906 67.937786 -1.922155 " stroke="#e9b858" stroke-width="6" stroke-opacity="1" stroke-miterlimit="10"/></g><g clip-path="url(#1448c670d6)"><path stroke-linecap="butt" transform="matrix(0.347222, 0, 0, 0.347222, 94.613184, 41.248576)" fill="none" stroke-linejoin="miter" d="M -67.938476 15.157852 C -67.938476 15.157852 -41.703474 -8.410901 -0.16847 -12.989651 C 19.530282 -15.160901 41.501534 -11.628401 67.939037 -1.91965 " stroke="#e9b858" stroke-width="6" stroke-opacity="1" stroke-miterlimit="10"/></g><g clip-path="url(#68699ba6ea)"><path stroke-linecap="butt" transform="matrix(0.347222, 0, 0, 0.347222, 95.843741, 51.835734)" fill="none" stroke-linejoin="miter" d="M -67.938729 15.154337 C -67.938729 15.154337 -41.703727 -8.414415 -0.168723 -12.993165 C 19.530029 -15.153165 41.501281 -11.631915 67.938783 -1.923164 " stroke="#e9b858" stroke-width="6" stroke-opacity="1" stroke-miterlimit="10"/></g><g clip-path="url(#2a02bbe49a)"><path stroke-linecap="butt" transform="matrix(0.347222, 0, 0, 0.347222, 97.031933, 63.514551)" fill="none" stroke-linejoin="miter" d="M -67.929472 15.156845 C -67.929472 15.156845 -41.70572 -8.411907 -0.170716 -12.990658 C 19.528036 -15.150658 41.510538 -11.629408 67.93679 -1.920657 " stroke="#e9b858" stroke-width="6" stroke-opacity="1" stroke-miterlimit="10"/></g></g></g></g><g mask="url(#2cfbe8969c)"><g transform="matrix(1, 0, 0, 1, 250, 22)"><g clip-path="url(#184a97a387)"><g clip-path="url(#92279d00d7)"><path fill="#e9b858" d="M 40.277344 15.078125 C 40.277344 15.078125 81.410156 2.957031 81.410156 2.957031 C 81.410156 2.957031 97.214844 49.140625 97.214844 49.140625 C 97.214844 49.140625 56.414062 62.234375 56.414062 62.234375 C 56.414062 62.234375 40.277344 15.078125 40.277344 15.078125 Z M 40.277344 15.078125 " fill-opacity="1" fill-rule="nonzero"/></g><g clip-path="url(#8bd71c1b0c)"><path fill="#e9b858" d="M 40.277344 15.078125 C 40.277344 15.078125 0.34375 30.703125 0.34375 30.703125 C 0.34375 30.703125 16.152344 76.886719 16.152344 76.886719 C 16.152344 76.886719 56.414062 62.234375 56.414062 62.234375 C 56.414062 62.234375 40.277344 15.078125 40.277344 15.078125 Z M 40.277344 15.078125 " fill-opacity="1" fill-rule="nonzero"/></g><path fill="#ece3da" d="M 41.554688 18.816406 C 41.554688 18.816406 21.796875 9.429688 3.558594 31.824219 C 3.558594 31.824219 17.554688 72.71875 17.554688 72.71875 C 17.554688 72.71875 34.042969 54.113281 55.75 60.285156 C 55.75 60.285156 41.554688 18.816406 41.554688 18.816406 Z M 41.554688 18.816406 " fill-opacity="1" fill-rule="nonzero"/><path fill="#ece3da" d="M 17.550781 72.707031 C 17.550781 72.707031 55.75 60.285156 55.75 60.285156 C 55.75 60.285156 48.386719 52.136719 33.578125 57.207031 C 18.769531 62.273438 17.550781 72.707031 17.550781 72.707031 Z M 17.550781 72.707031 " fill-opacity="1" fill-rule="nonzero"/><path fill="#ece3da" d="M 93.75 47.28125 C 93.75 47.28125 55.75 60.285156 55.75 60.285156 C 55.75 60.285156 56.574219 49.335938 71.382812 44.269531 C 86.191406 39.199219 93.75 47.28125 93.75 47.28125 Z M 93.75 47.28125 " fill-opacity="1" fill-rule="nonzero"/><path fill="#ece3da" d="M 79.554688 5.8125 C 79.554688 5.8125 59.796875 -3.578125 41.554688 18.816406 C 41.554688 18.816406 55.683594 60.09375 55.683594 60.09375 C 55.683594 60.09375 72.042969 41.109375 93.746094 47.28125 C 93.746094 47.28125 79.554688 5.8125 79.554688 5.8125 Z M 79.554688 5.8125 " fill-opacity="1" fill-rule="nonzero"/><g clip-path="url(#db6a75cb44)"><path stroke-linecap="butt" transform="matrix(0.347222, 0, 0, 0.347222, 23.413541, 26.797216)" fill="none" stroke-linejoin="miter" d="M -45.257253 18.212769 C -45.257253 18.212769 -31.127252 -2.295983 -3.350999 -12.285983 C 9.834002 -17.022234 25.505253 -18.214734 45.260255 -15.897234 " stroke="#ec5e5c" stroke-width="4" stroke-opacity="1" stroke-miterlimit="10"/></g><g clip-path="url(#74a58cbfdf)"><path stroke-linecap="butt" transform="matrix(0.347222, 0, 0, 0.347222, 25.527076, 32.96319)" fill="none" stroke-linejoin="miter" d="M -45.257984 18.218515 C -45.257984 18.218515 -31.127982 -2.301487 -3.34048 -12.280238 C 9.833271 -17.016488 25.504523 -18.220238 45.259525 -15.902738 " stroke="#ec5e5c" stroke-width="4" stroke-opacity="1" stroke-miterlimit="10"/></g><g clip-path="url(#48a53ec3b7)"><path stroke-linecap="butt" transform="matrix(0.347222, 0, 0, 0.347222, 27.716637, 38.319442)" fill="none" stroke-linejoin="miter" d="M -45.263918 18.216259 C -45.263918 18.216259 -31.122666 -2.292493 -3.346414 -12.282494 C 9.827337 -17.018744 25.509839 -18.211244 45.253591 -15.904994 " stroke="#ec5e5c" stroke-width="4" stroke-opacity="1" stroke-miterlimit="10"/></g><g clip-path="url(#1093eb7e08)"><path stroke-linecap="butt" transform="matrix(0.347222, 0, 0, 0.347222, 29.392681, 44.018051)" fill="none" stroke-linejoin="miter" d="M -45.253426 18.218015 C -45.253426 18.218015 -31.123425 -2.301987 -3.347173 -12.280738 C 9.826579 -17.016988 25.50908 -18.220738 45.264082 -15.903238 " stroke="#ec5e5c" stroke-width="4" stroke-opacity="1" stroke-miterlimit="10"/></g><g clip-path="url(#c7245595b6)"><path stroke-linecap="butt" transform="matrix(0.347222, 0, 0, 0.347222, 31.98191, 51.087838)" fill="none" stroke-linejoin="miter" d="M -45.262905 18.219527 C -45.262905 18.219527 -31.121653 -2.300475 -3.345401 -12.279226 C 9.82835 -17.015476 25.510852 -18.219226 45.254604 -15.901726 " stroke="#ec5e5c" stroke-width="4" stroke-opacity="1" stroke-miterlimit="10"/></g><g clip-path="url(#955c23ae51)"><path stroke-linecap="butt" transform="matrix(0.347222, 0, 0, 0.347222, 34.722193, 58.914579)" fill="none" stroke-linejoin="miter" d="M -45.257419 18.212265 C -45.257419 18.212265 -31.127418 -2.296487 -3.351165 -12.286488 C 9.833836 -17.011488 25.505087 -18.215238 45.260089 -15.897738 " stroke="#ec5e5c" stroke-width="4" stroke-opacity="1" stroke-miterlimit="10"/></g><g clip-path="url(#6791fc4738)"><path stroke-linecap="butt" transform="matrix(0.347222, 0, 0, 0.347222, 61.977395, 13.30104)" fill="none" stroke-linejoin="miter" d="M -46.093652 16.323006 C -46.093652 16.323006 -30.894901 -3.409496 -2.634898 -11.914497 C 10.775103 -15.953247 26.491354 -16.324497 46.088856 -12.971997 " stroke="#ec5e5c" stroke-width="4" stroke-opacity="1" stroke-miterlimit="10"/></g><g clip-path="url(#d0392d8dac)"><path stroke-linecap="butt" transform="matrix(0.347222, 0, 0, 0.347222, 63.763509, 19.569787)" fill="none" stroke-linejoin="miter" d="M -46.096409 16.325264 C -46.096409 16.325264 -30.897658 -3.407237 -2.637655 -11.923488 C 10.772346 -15.950989 26.488597 -16.333489 46.097349 -12.980988 " stroke="#ec5e5c" stroke-width="4" stroke-opacity="1" stroke-miterlimit="10"/></g><g clip-path="url(#4cfae9bce1)"><path stroke-linecap="butt" transform="matrix(0.347222, 0, 0, 0.347222, 65.668391, 25.033676)" fill="none" stroke-linejoin="miter" d="M -46.09247 16.328015 C -46.09247 16.328015 -30.904969 -3.415737 -2.633716 -11.920738 C 10.776285 -15.959488 26.492536 -16.330738 46.090038 -12.978238 " stroke="#ec5e5c" stroke-width="4" stroke-opacity="1" stroke-miterlimit="10"/></g><g clip-path="url(#79ca9f5c5c)"><path stroke-linecap="butt" transform="matrix(0.347222, 0, 0, 0.347222, 67.041976, 30.812843)" fill="none" stroke-linejoin="miter" d="M -46.088394 16.322763 C -46.088394 16.322763 -30.900893 -3.409739 -2.62964 -11.91474 C 10.769111 -15.95349 26.485362 -16.32474 46.094114 -12.97224 " stroke="#ec5e5c" stroke-width="4" stroke-opacity="1" stroke-miterlimit="10"/></g><g clip-path="url(#35deb42c7a)"><path stroke-linecap="butt" transform="matrix(0.347222, 0, 0, 0.347222, 69.255532, 38.009027)" fill="none" stroke-linejoin="miter" d="M -46.095935 16.331504 C -46.095935 16.331504 -30.897184 -3.412247 -2.637181 -11.917248 C 10.77282 -15.955999 26.489072 -16.327249 46.097823 -12.974748 " stroke="#ec5e5c" stroke-width="4" stroke-opacity="1" stroke-miterlimit="10"/></g><g clip-path="url(#75cce1ae85)"><path stroke-linecap="butt" transform="matrix(0.347222, 0, 0, 0.347222, 71.580531, 45.969097)" fill="none" stroke-linejoin="miter" d="M -46.098185 16.322752 C -46.098185 16.322752 -30.899433 -3.40975 -2.639431 -11.914751 C 10.770571 -15.953501 26.486822 -16.324751 46.095574 -12.972251 " stroke="#ec5e5c" stroke-width="4" stroke-opacity="1" stroke-miterlimit="10"/></g></g></g></g><g mask="url(#d81f512568)"><g transform="matrix(1, 0, 0, 1, 216, 103)"><g clip-path="url(#ad1747ac11)"><g clip-path="url(#7b5afcfbdd)"><path fill="#ec5e5c" d="M 95.847656 95.558594 C 95.847656 95.558594 1.292969 61.960938 1.292969 61.960938 C 1.292969 61.960938 23.144531 0.457031 23.144531 0.457031 C 23.144531 0.457031 117.699219 34.054688 117.699219 34.054688 C 117.699219 34.054688 95.847656 95.558594 95.847656 95.558594 Z M 95.847656 95.558594 " fill-opacity="1" fill-rule="nonzero"/></g><path fill="#ece3da" d="M 93.800781 91.003906 C 93.800781 91.003906 5.589844 59.660156 5.589844 59.660156 C 5.589844 59.660156 25.289062 4.222656 25.289062 4.222656 C 25.289062 4.222656 113.5 35.566406 113.5 35.566406 C 113.5 35.566406 93.800781 91.003906 93.800781 91.003906 Z M 93.800781 91.003906 " fill-opacity="1" fill-rule="nonzero"/><path fill="#ec5e5c" d="M 10.183594 57.066406 C 10.183594 57.066406 10.414062 56.414062 10.414062 56.414062 C 10.414062 56.414062 10.585938 55.933594 10.585938 55.933594 C 10.585938 55.933594 45.453125 36.761719 45.453125 36.761719 C 45.710938 36.621094 46.023438 36.617188 46.28125 36.757812 C 46.539062 36.898438 46.707031 37.15625 46.730469 37.449219 C 46.730469 37.449219 48.214844 55.710938 48.214844 55.710938 C 48.214844 55.710938 63.214844 34.796875 63.214844 34.796875 C 63.429688 34.5 63.808594 34.371094 64.160156 34.46875 C 64.511719 34.570312 64.761719 34.882812 64.78125 35.246094 C 64.78125 35.246094 66.253906 58.75 66.253906 58.75 C 66.253906 58.75 80.289062 54.34375 80.289062 54.34375 C 80.605469 54.242188 80.949219 54.332031 81.175781 54.570312 C 81.175781 54.570312 89.890625 63.671875 89.890625 63.671875 C 89.890625 63.671875 108.113281 36.773438 108.113281 36.773438 C 108.113281 36.773438 109.417969 37.238281 109.417969 37.238281 C 109.417969 37.238281 108.734375 38.644531 108.734375 38.644531 C 108.734375 38.644531 90.726562 65.53125 90.726562 65.53125 C 90.578125 65.746094 90.34375 65.886719 90.082031 65.910156 C 89.820312 65.933594 89.5625 65.835938 89.382812 65.644531 C 89.382812 65.644531 80.296875 56.15625 80.296875 56.15625 C 80.296875 56.15625 65.71875 60.730469 65.71875 60.730469 C 65.464844 60.8125 65.191406 60.769531 64.972656 60.621094 C 64.75 60.46875 64.613281 60.226562 64.597656 59.960938 C 64.597656 59.960938 63.207031 37.777344 63.207031 37.777344 C 63.207031 37.777344 48.246094 58.636719 48.246094 58.636719 C 48.035156 58.929688 47.664062 59.0625 47.3125 58.964844 C 46.960938 58.867188 46.710938 58.5625 46.679688 58.199219 C 46.679688 58.199219 45.117188 38.921875 45.117188 38.921875 C 45.117188 38.921875 11.355469 57.484375 11.355469 57.484375 C 11.355469 57.484375 10.183594 57.066406 10.183594 57.066406 Z M 10.183594 57.066406 " fill-opacity="1" fill-rule="nonzero"/></g></g></g><g mask="url(#a2ec669efe)"><g transform="matrix(1, 0, 0, 1, 14, 142)"><g clip-path="url(#6da5d05fcb)"><g clip-path="url(#8e2ee66605)"><path fill="#85b0dc" d="M 109.609375 64.953125 C 109.609375 64.953125 10.316406 79.453125 10.316406 79.453125 C 10.316406 79.453125 0.882812 14.867188 0.882812 14.867188 C 0.882812 14.867188 100.175781 0.367188 100.175781 0.367188 C 100.175781 0.367188 109.609375 64.953125 109.609375 64.953125 Z M 109.609375 64.953125 " fill-opacity="1" fill-rule="nonzero"/></g><path fill="#ece3da" d="M 105.671875 61.882812 C 105.671875 61.882812 13.039062 75.410156 13.039062 75.410156 C 13.039062 75.410156 4.539062 17.195312 4.539062 17.195312 C 4.539062 17.195312 97.171875 3.664062 97.171875 3.664062 C 97.171875 3.664062 105.671875 61.882812 105.671875 61.882812 Z M 105.671875 61.882812 " fill-opacity="1" fill-rule="nonzero"/><path fill="#85b0dc" d="M 15.890625 70.972656 C 15.890625 70.972656 15.789062 70.285156 15.789062 70.285156 C 15.789062 70.285156 15.714844 69.777344 15.714844 69.777344 C 15.714844 69.777344 37.574219 36.535156 37.574219 36.535156 C 37.734375 36.289062 38.011719 36.140625 38.304688 36.144531 C 38.597656 36.144531 38.867188 36.296875 39.027344 36.542969 C 39.027344 36.542969 48.875 51.992188 48.875 51.992188 C 48.875 51.992188 52.359375 26.492188 52.359375 26.492188 C 52.410156 26.132812 52.679688 25.839844 53.039062 25.765625 C 53.398438 25.6875 53.765625 25.847656 53.953125 26.160156 C 53.953125 26.160156 66.242188 46.246094 66.242188 46.246094 C 66.242188 46.246094 76.589844 35.789062 76.589844 35.789062 C 76.820312 35.554688 77.167969 35.472656 77.476562 35.578125 C 77.476562 35.578125 89.4375 39.550781 89.4375 39.550781 C 89.4375 39.550781 92.972656 7.25 92.972656 7.25 C 92.972656 7.25 94.34375 7.050781 94.34375 7.050781 C 94.34375 7.050781 94.394531 8.617188 94.394531 8.617188 C 94.394531 8.617188 91.042969 40.800781 91.042969 40.800781 C 91.015625 41.0625 90.871094 41.296875 90.652344 41.4375 C 90.433594 41.578125 90.160156 41.613281 89.910156 41.53125 C 89.910156 41.53125 77.441406 37.386719 77.441406 37.386719 C 77.441406 37.386719 66.695312 48.25 66.695312 48.25 C 66.507812 48.4375 66.246094 48.53125 65.980469 48.5 C 65.71875 48.46875 65.480469 48.320312 65.34375 48.09375 C 65.34375 48.09375 53.746094 29.132812 53.746094 29.132812 C 53.746094 29.132812 50.269531 54.5625 50.269531 54.5625 C 50.21875 54.921875 49.953125 55.214844 49.597656 55.292969 C 49.242188 55.371094 48.878906 55.21875 48.683594 54.910156 C 48.683594 54.910156 38.285156 38.601562 38.285156 38.601562 C 38.285156 38.601562 17.121094 70.792969 17.121094 70.792969 C 17.121094 70.792969 15.890625 70.972656 15.890625 70.972656 Z M 15.890625 70.972656 " fill-opacity="1" fill-rule="nonzero"/></g></g></g><path fill="#e9b858" d="M 189.289062 249.824219 C 189.289062 249.824219 172.964844 231.195312 172.964844 231.195312 C 172.964844 231.195312 186.816406 219.058594 186.816406 219.058594 C 186.816406 219.058594 203.144531 237.6875 203.144531 237.6875 C 203.144531 237.6875 189.289062 249.824219 189.289062 249.824219 Z M 189.289062 249.824219 " fill-opacity="1" fill-rule="nonzero"/><path fill="#e9b858" d="M 189.382812 132.363281 C 164.53125 104.003906 121.394531 101.160156 93.035156 126.007812 C 64.675781 150.863281 61.832031 193.996094 86.683594 222.355469 C 111.535156 250.714844 154.671875 253.558594 183.03125 228.710938 C 211.390625 203.859375 214.234375 160.722656 189.382812 132.363281 Z M 95.28125 214.824219 C 74.589844 191.210938 76.960938 155.296875 100.570312 134.609375 C 124.179688 113.917969 160.09375 116.285156 180.785156 139.894531 C 201.476562 163.507812 199.109375 199.421875 175.496094 220.109375 C 151.886719 240.800781 115.972656 238.433594 95.28125 214.824219 Z M 95.28125 214.824219 " fill-opacity="1" fill-rule="nonzero"/><path fill="#000000" d="M 279.710938 363.128906 C 279.710938 363.128906 238.011719 314.578125 221.167969 295.359375 C 196.890625 267.652344 187.40625 247.675781 187.40625 247.675781 C 187.40625 247.675781 201.257812 235.535156 201.257812 235.535156 C 201.257812 235.535156 216.351562 245.535156 243.558594 276.582031 C 260.351562 295.742188 302.398438 343.246094 302.398438 343.246094 C 302.398438 343.246094 311.398438 353.515625 299.816406 363.667969 C 290.382812 371.933594 279.710938 363.128906 279.710938 363.128906 Z M 279.710938 363.128906 " fill-opacity="1" fill-rule="nonzero"/></svg>